<?xml version="1.0" encoding="utf-8"?>
<!-- Generator: Adobe Illustrator 18.1.1, SVG Export Plug-In . SVG Version: 6.00 Build 0)  -->
<svg version="1.1" id="Calque_1" xmlns="http://www.w3.org/2000/svg" xmlns:xlink="http://www.w3.org/1999/xlink" x="0px" y="0px"
	 viewBox="0 0 283.5 283.5" enable-background="new 0 0 283.5 283.5" xml:space="preserve">
<linearGradient id="SVGID_1_" gradientUnits="userSpaceOnUse" x1="91.2345" y1="82.3036" x2="215.2345" y2="204.3036" gradientTransform="matrix(0.885 0 0 -0.885 0 274.442)">
	<stop  offset="0" style="stop-color:#DFD42F"/>
	<stop  offset="1" style="stop-color:#FCEA20"/>
</linearGradient>
<polygon fill="url(#SVGID_1_)" points="283.2,259.9 107.3,217.6 31.9,249.3 45.9,202.8 0,191.7 0,23.6 283.2,23.6 "/>
<g>
	<g>
		<g>
			<circle fill="#17283E" cx="62.1" cy="103.9" r="32.6"/>
		</g>
		<path fill="#FFFFFF" d="M72.7,94.1C68.1,94,64,96.8,62,100.7c-1.9-3.8-5.8-6.5-10.4-6.5c-6.5-0.1-11.9,5.1-11.9,11.6
			c-0.1,6.5,5.1,11.8,11.6,11.9c4.7,0.1,8.8-2.7,10.7-6.5c1.9,3.8,5.8,6.5,10.4,6.5c6.5,0.1,11.8-5.1,11.9-11.6
			C84.3,99.4,79.2,94.1,72.7,94.1z M51.4,110.4c-2.6,0-4.5-2.1-4.5-4.7s2.1-4.5,4.7-4.5c2.6,0,4.5,2.1,4.5,4.7
			C56,108.5,54,110.5,51.4,110.4z M72.5,110.4c-2.6,0-4.5-2.1-4.5-4.7s2.1-4.5,4.7-4.5s4.5,2.1,4.5,4.7
			C77.1,108.5,75,110.4,72.5,110.4z"/>
		<g>
			<circle fill="#FFFFFF" cx="80" cy="86.2" r="5"/>
		</g>
	</g>
	<g>
		<path fill="#17283E" d="M116.6,89.5c9.4,0,12,7,12,17s-3.1,17-12,17s-11.9-7-11.9-17C104.6,96.5,107.3,89.5,116.6,89.5z
			 M116.6,118.6c4.7,0,5.6-4,5.6-12.1c0-7.2-0.8-12.1-5.6-12.1c-4.7,0-5.5,5-5.5,12.1C111.1,114.7,112,118.6,116.6,118.6z"/>
		<path fill="#17283E" d="M133.6,90.4h6.1v4h0.1c1.3-2.8,3.7-4.8,7.3-4.8c7.3,0,10.4,6.3,10.4,17.3c0,13.5-5.5,16.5-9.9,16.5
			c-3.5,0-6.1-1.8-7.3-4.6h-0.1v14.3h-6.5V90.4z M145.2,118.3c3.7,0,5.4-2.7,5.4-11.7c0-7.3-1-11.9-5.5-11.9
			c-4.4,0-5.5,4.5-5.5,11.4C139.7,113.9,140.7,118.3,145.2,118.3z"/>
		<path fill="#17283E" d="M162.7,79.9h6.5v42.7h-6.5V79.9z"/>
		<path fill="#17283E" d="M196.9,115.9c0,1.2,0.7,2.3,1.7,2.3c0.4,0,0.8-0.1,1.1-0.2v4.2c-0.8,0.4-1.9,0.8-3.2,0.8
			c-2.8,0-5.3-1.2-5.5-4.2h-0.1c-1.8,3.2-4.2,4.7-8.1,4.7c-5.1,0-8.4-2.8-8.4-9c0-7.2,3.1-8.7,7.5-10.1l5-1.4
			c2.3-0.6,3.8-1.3,3.8-4.2c0-2.9-1.1-4.8-4.4-4.8c-4.3,0-5,3.1-5,6.2h-6.1c0-6.8,2.8-10.6,11.3-10.6c5.7,0,10.3,2.2,10.3,7.9
			L196.9,115.9L196.9,115.9z M190.8,105.6c-1.7,1.3-5.3,2.1-7.2,3c-1.9,0.9-2.7,2.8-2.7,5.2c0,2.7,1.3,4.9,4,4.9
			c3.9,0,5.8-2.9,5.8-7.7V105.6z"/>
		<path fill="#17283E" d="M204.2,114.7h6.8v7.9h-6.8V114.7z"/>
		<path fill="#17283E" d="M239,115.9c0,1.2,0.7,2.3,1.7,2.3c0.4,0,0.8-0.1,1.1-0.2v4.2c-0.8,0.4-1.9,0.8-3.2,0.8
			c-2.8,0-5.3-1.2-5.5-4.2H233c-1.8,3.2-4.2,4.7-8.1,4.7c-5.1,0-8.4-2.8-8.4-9c0-7.2,3.1-8.7,7.5-10.1l5-1.4
			c2.3-0.6,3.8-1.3,3.8-4.2c0-2.9-1.1-4.8-4.4-4.8c-4.3,0-5,3.1-5,6.2h-6.1c0-6.8,2.8-10.6,11.3-10.6c5.7,0,10.3,2.2,10.3,7.9
			L239,115.9L239,115.9z M232.9,105.6c-1.7,1.3-5.3,2.1-7.2,3c-1.9,0.9-2.7,2.8-2.7,5.2c0,2.7,1.3,4.9,4,4.9c3.9,0,5.8-2.9,5.8-7.7
			V105.6z"/>
		<path fill="#17283E" d="M245.9,79.3h6.5v6.5h-6.5V79.3z M245.9,90.4h6.5v32.2h-6.5V90.4z"/>
	</g>
</g>
<g>
	<path fill="#17283E" d="M166.1,156.4l-1,5.7H163l1.1-6l-3.4-9.3h2.2l2.5,7.5l5-7.5h2.3L166.1,156.4z"/>
	<path fill="#17283E" d="M180.3,155.4c0,0.8-0.1,1.7-0.4,2.5c-0.3,0.8-0.7,1.6-1.2,2.3c-0.5,0.7-1.1,1.2-1.9,1.6
		c-0.8,0.4-1.6,0.6-2.6,0.6c-0.7,0-1.3-0.1-1.8-0.3c-0.5-0.2-1-0.5-1.3-0.9c-0.4-0.4-0.6-0.9-0.8-1.4c-0.2-0.5-0.3-1.1-0.3-1.8
		c0-0.9,0.1-1.8,0.4-2.6c0.3-0.8,0.7-1.6,1.2-2.3c0.5-0.7,1.1-1.2,1.9-1.6c0.7-0.4,1.6-0.6,2.5-0.6c0.7,0,1.3,0.1,1.8,0.4
		c0.5,0.2,1,0.6,1.4,1c0.4,0.4,0.7,0.9,0.8,1.4C180.2,154.2,180.3,154.8,180.3,155.4z M174.4,160.8c0.6,0,1.2-0.2,1.7-0.5
		c0.5-0.3,0.9-0.7,1.2-1.2c0.3-0.5,0.6-1.1,0.8-1.7c0.2-0.6,0.3-1.3,0.3-1.9c0-0.4,0-0.8-0.1-1.2c-0.1-0.4-0.2-0.7-0.4-1
		c-0.2-0.3-0.5-0.5-0.8-0.7c-0.3-0.2-0.7-0.2-1.1-0.2c-0.6,0-1.1,0.1-1.6,0.4c-0.5,0.3-0.9,0.7-1.2,1.2c-0.3,0.5-0.6,1.1-0.8,1.7
		c-0.2,0.7-0.3,1.3-0.3,2.1c0,0.9,0.2,1.6,0.6,2.1C173,160.5,173.6,160.8,174.4,160.8z"/>
	<path fill="#17283E" d="M191.9,151.1l-2,11h-2l0.6-3.5c-0.2,0.4-0.5,0.8-0.7,1.3c-0.3,0.4-0.6,0.8-0.9,1.2
		c-0.3,0.4-0.7,0.7-1.1,0.9c-0.4,0.2-0.9,0.3-1.4,0.3c-1,0-1.7-0.3-2.1-1c-0.4-0.7-0.6-1.6-0.6-2.8c0-0.5,0-1,0.1-1.5l1-5.9h2
		l-1,5.7c0,0.3-0.1,0.5-0.1,0.8c0,0.3,0,0.5,0,0.8c0,0.3,0,0.6,0,0.9c0,0.3,0.1,0.5,0.2,0.8c0.1,0.2,0.2,0.4,0.4,0.5
		c0.2,0.1,0.4,0.2,0.7,0.2c0.4,0,0.8-0.2,1.1-0.5s0.7-0.7,1.1-1.2c0.3-0.5,0.7-1,0.9-1.5c0.3-0.6,0.5-1.1,0.8-1.6l0.9-4.9H191.9z"/>
	<path fill="#17283E" d="M200.2,152.9c-0.1,0-0.1,0-0.2,0c-0.1,0-0.1,0-0.2,0c-0.8,0-1.5,0.3-2.2,0.8c-0.6,0.5-1.2,1.3-1.6,2.2
		l-1.1,6.2h-2l2-11h2l-0.5,2.9c0.4-1,0.8-1.7,1.4-2.2c0.6-0.5,1.2-0.7,2-0.7c0.1,0,0.3,0,0.4,0c0.1,0,0.2,0,0.3,0.1L200.2,152.9z"/>
	<path fill="#17283E" d="M219.5,153.1c0,1.2-0.2,2.4-0.6,3.5c-0.4,1.1-0.9,2.1-1.7,3c-0.7,0.9-1.6,1.6-2.6,2.1
		c-1,0.5-2.2,0.8-3.4,0.8c-1,0-1.9-0.2-2.7-0.5c-0.8-0.3-1.5-0.8-2-1.4c-0.6-0.6-1-1.3-1.3-2.1c-0.3-0.8-0.4-1.6-0.4-2.5
		c0-1.3,0.2-2.5,0.6-3.7c0.4-1.1,0.9-2.1,1.7-3c0.7-0.8,1.6-1.5,2.6-2c1-0.5,2.2-0.7,3.5-0.7c1,0,1.9,0.2,2.7,0.5
		c0.8,0.3,1.5,0.8,2,1.4c0.6,0.6,1,1.3,1.3,2.1C219.3,151.3,219.5,152.1,219.5,153.1z M211.3,160.7c1,0,1.8-0.2,2.6-0.6
		c0.7-0.4,1.4-1,1.9-1.7c0.5-0.7,0.9-1.5,1.2-2.4c0.3-0.9,0.4-1.8,0.4-2.8c0-0.7-0.1-1.4-0.3-2c-0.2-0.6-0.5-1.1-0.9-1.6
		c-0.4-0.4-0.9-0.8-1.4-1c-0.6-0.3-1.2-0.4-1.9-0.4c-1,0-1.9,0.2-2.6,0.7c-0.8,0.4-1.4,1-1.9,1.7c-0.5,0.7-0.9,1.5-1.2,2.4
		c-0.3,0.9-0.4,1.8-0.4,2.8c0,0.7,0.1,1.4,0.3,2c0.2,0.6,0.5,1.1,0.8,1.6c0.4,0.4,0.8,0.8,1.4,1
		C209.9,160.6,210.6,160.7,211.3,160.7z"/>
	<path fill="#17283E" d="M222.2,151.1h1.9l-0.5,2.9c0.2-0.4,0.5-0.8,0.7-1.2c0.3-0.4,0.6-0.7,0.9-1c0.3-0.3,0.7-0.5,1.2-0.7
		c0.4-0.2,0.9-0.3,1.4-0.3c0.5,0,0.9,0.1,1.3,0.3c0.4,0.2,0.7,0.5,0.9,0.8c0.3,0.4,0.4,0.8,0.6,1.3c0.1,0.5,0.2,1,0.2,1.6
		c0,0.9-0.1,1.8-0.4,2.6c-0.3,0.9-0.7,1.7-1.2,2.4c-0.5,0.7-1.2,1.3-2,1.7c-0.8,0.5-1.7,0.7-2.8,0.7c-0.4,0-0.7,0-1.1-0.1
		c-0.4-0.1-0.8-0.1-1.1-0.3l-0.8,4.8h-2L222.2,151.1z M227.3,152.4c-0.4,0-0.8,0.1-1.2,0.4c-0.4,0.3-0.7,0.6-1.1,1
		c-0.3,0.4-0.7,0.9-1,1.4c-0.3,0.5-0.6,1-0.8,1.5l-0.6,3.7c0.5,0.2,1.1,0.3,1.8,0.3c0.7,0,1.3-0.2,1.9-0.5c0.6-0.3,1-0.8,1.4-1.3
		c0.4-0.5,0.7-1.2,0.9-1.9c0.2-0.7,0.3-1.4,0.3-2.2c0-0.3,0-0.6-0.1-0.9c0-0.3-0.1-0.6-0.2-0.8c-0.1-0.2-0.3-0.4-0.5-0.6
		C227.9,152.5,227.6,152.4,227.3,152.4z"/>
	<path fill="#17283E" d="M237.9,150.9c0.9,0,1.6,0.2,2.2,0.7c0.6,0.5,0.8,1.1,0.8,1.9c0,0.8-0.2,1.4-0.7,1.9c-0.5,0.5-1,0.9-1.7,1.2
		s-1.4,0.5-2.3,0.6c-0.8,0.1-1.6,0.2-2.4,0.3c0,0.3-0.1,0.6-0.1,0.8c0,0.7,0.2,1.3,0.5,1.8c0.3,0.5,0.9,0.7,1.8,0.7
		c0.5,0,1.1-0.1,1.6-0.2c0.5-0.2,1-0.4,1.5-0.6l0.4,1.4c-0.5,0.3-1.1,0.6-1.7,0.7c-0.6,0.2-1.3,0.3-2,0.3c-0.7,0-1.3-0.1-1.8-0.3
		c-0.5-0.2-0.9-0.5-1.3-0.9c-0.3-0.4-0.6-0.8-0.7-1.3c-0.2-0.5-0.3-1.1-0.3-1.7c0-0.9,0.1-1.8,0.4-2.7c0.3-0.9,0.7-1.7,1.2-2.3
		c0.5-0.7,1.2-1.2,1.9-1.6C236.1,151.1,237,150.9,237.9,150.9z M237.6,152.4c-0.5,0-0.9,0.1-1.3,0.3c-0.4,0.2-0.7,0.5-1,0.8
		s-0.5,0.7-0.7,1.1c-0.2,0.4-0.3,0.8-0.4,1.3c0.5,0,1.1-0.1,1.7-0.2c0.6-0.1,1.1-0.2,1.6-0.4c0.5-0.2,0.9-0.4,1.2-0.7
		c0.3-0.3,0.5-0.6,0.5-1.1c0-0.4-0.1-0.6-0.4-0.9C238.4,152.5,238.1,152.4,237.6,152.4z"/>
	<path fill="#17283E" d="M241.5,162.1l2-11h2l-0.5,2.7c0.2-0.4,0.5-0.8,0.7-1.1c0.3-0.4,0.6-0.7,0.9-0.9c0.3-0.3,0.7-0.5,1.1-0.6
		c0.4-0.2,0.8-0.2,1.3-0.2c0.5,0,0.9,0.1,1.3,0.3c0.4,0.2,0.7,0.5,0.9,0.8c0.2,0.3,0.4,0.8,0.6,1.2c0.1,0.5,0.2,1,0.2,1.6
		c0,0.2,0,0.5,0,0.7c0,0.3-0.1,0.5-0.1,0.8l-1,5.9h-2l1-5.7c0.1-0.5,0.1-1,0.1-1.5c0-0.7-0.1-1.2-0.3-1.7c-0.2-0.5-0.6-0.7-1.2-0.7
		c-0.4,0-0.7,0.1-1.1,0.3c-0.3,0.2-0.7,0.5-1,0.8c-0.3,0.3-0.6,0.7-0.9,1.2c-0.3,0.4-0.5,0.9-0.8,1.4l-1.1,6H241.5z"/>
	<path fill="#17283E" d="M120.7,174.1c0.7,0,1.4,0.1,2.1,0.2c0.7,0.1,1.3,0.3,1.9,0.6l-0.4,1.6c-0.6-0.2-1.1-0.4-1.7-0.5
		s-1.2-0.2-1.8-0.2c-1,0-2,0.2-2.8,0.6c-0.8,0.4-1.5,0.9-2,1.5c-0.6,0.6-1,1.4-1.3,2.3c-0.3,0.9-0.4,1.9-0.4,2.9
		c0,0.8,0.1,1.5,0.3,2.1c0.2,0.6,0.5,1.2,1,1.6c0.4,0.5,1,0.8,1.6,1.1c0.7,0.3,1.4,0.4,2.3,0.4c0.6,0,1.1,0,1.7-0.1s1.1-0.2,1.6-0.4
		l0.2,1.6c-0.6,0.2-1.1,0.4-1.8,0.5c-0.6,0.1-1.3,0.2-2,0.2c-1.1,0-2.1-0.2-2.9-0.5c-0.9-0.4-1.6-0.8-2.2-1.4s-1.1-1.3-1.4-2.2
		c-0.3-0.8-0.5-1.7-0.5-2.7c0-1.3,0.2-2.4,0.6-3.5c0.4-1.1,0.9-2.1,1.6-2.9c0.7-0.8,1.6-1.5,2.7-1.9
		C118.1,174.3,119.3,174.1,120.7,174.1z"/>
	<path fill="#17283E" d="M124.7,189.7l2.8-16.2h2l-1.4,7.8c0.2-0.4,0.4-0.7,0.7-1.1c0.3-0.3,0.5-0.6,0.9-0.9
		c0.3-0.3,0.7-0.5,1.1-0.6c0.4-0.2,0.8-0.2,1.3-0.2c0.5,0,0.9,0.1,1.3,0.3c0.4,0.2,0.7,0.5,0.9,0.8c0.2,0.3,0.4,0.8,0.6,1.2
		c0.1,0.5,0.2,1,0.2,1.6c0,0.2,0,0.5,0,0.7c0,0.3-0.1,0.5-0.1,0.8l-1,5.9h-2l1-5.7c0.1-0.5,0.1-1,0.1-1.5c0-0.7-0.1-1.2-0.3-1.7
		c-0.2-0.5-0.6-0.7-1.2-0.7c-0.4,0-0.7,0.1-1.1,0.3c-0.3,0.2-0.7,0.5-1,0.8c-0.3,0.3-0.6,0.7-0.9,1.2c-0.3,0.4-0.5,0.9-0.8,1.4
		l-1.1,6H124.7z"/>
	<path fill="#17283E" d="M145.1,189.7h-1.9l0.7-4c-0.2,0.5-0.4,0.9-0.7,1.4c-0.3,0.5-0.6,1-1,1.4c-0.4,0.4-0.8,0.8-1.2,1
		c-0.4,0.3-0.9,0.4-1.4,0.4c-0.5,0-0.9-0.1-1.3-0.3c-0.4-0.2-0.7-0.5-0.9-0.8s-0.4-0.8-0.6-1.2c-0.1-0.5-0.2-1-0.2-1.5
		c0-1,0.1-1.9,0.4-2.9c0.3-0.9,0.7-1.7,1.3-2.4c0.6-0.7,1.2-1.3,2-1.7c0.8-0.4,1.7-0.6,2.7-0.6c0.7,0,1.4,0.1,2.1,0.2
		c0.7,0.2,1.3,0.3,1.7,0.6L145.1,189.7z M140.1,188.3c0.4,0,0.9-0.2,1.3-0.6c0.4-0.4,0.8-1,1.2-1.6c0.4-0.6,0.7-1.3,1.1-2.1
		c0.3-0.8,0.6-1.5,0.9-2.1l0.3-1.5c-0.5-0.2-1-0.3-1.7-0.3c-0.7,0-1.3,0.2-1.8,0.5c-0.5,0.3-1,0.8-1.4,1.3c-0.4,0.6-0.7,1.2-0.9,1.9
		c-0.2,0.7-0.3,1.4-0.3,2.2c0,0.3,0,0.6,0.1,0.9c0,0.3,0.1,0.5,0.2,0.8c0.1,0.2,0.2,0.4,0.4,0.5
		C139.6,188.2,139.8,188.3,140.1,188.3z"/>
	<path fill="#17283E" d="M148.5,178.7h2l0.5-2.9h2l-0.5,2.9h3.6l-0.3,1.6h-3.6l-1.1,6c0,0.3-0.1,0.5-0.1,0.7c0,0.4,0.1,0.8,0.3,1
		c0.2,0.2,0.5,0.3,1,0.3c0.4,0,0.8,0,1.1-0.1s0.7-0.2,1.1-0.3l0.1,1.5c-0.3,0.2-0.7,0.3-1.2,0.4c-0.5,0.1-1,0.2-1.5,0.2
		c-1,0-1.7-0.2-2.2-0.7c-0.5-0.5-0.8-1.2-0.8-2.1c0-0.2,0-0.3,0-0.5c0-0.2,0-0.3,0.1-0.4l1-5.9h-2L148.5,178.7z"/>
	<path fill="#17283E" d="M158.9,173.5h2l-1.4,8c0.2-0.4,0.5-0.8,0.8-1.2c0.3-0.4,0.6-0.7,1-1c0.3-0.3,0.7-0.5,1.1-0.7
		s0.8-0.3,1.3-0.3c0.5,0,1,0.1,1.3,0.3c0.4,0.2,0.7,0.5,0.9,0.9s0.4,0.8,0.6,1.3s0.2,1,0.2,1.5c0,1-0.1,1.9-0.4,2.8
		s-0.6,1.7-1.2,2.4c-0.5,0.7-1.2,1.3-2,1.7c-0.8,0.4-1.8,0.6-2.9,0.6c-0.7,0-1.4-0.1-2.2-0.2c-0.7-0.2-1.3-0.4-1.9-0.6L158.9,173.5z
		 M163.1,180c-0.4,0-0.8,0.1-1.1,0.3c-0.4,0.2-0.7,0.5-1.1,0.9c-0.3,0.4-0.7,0.8-1,1.3c-0.3,0.5-0.6,1-0.9,1.5l-0.7,4
		c0.2,0.1,0.5,0.2,0.8,0.2c0.3,0,0.6,0.1,1,0.1c0.8,0,1.5-0.2,2-0.5c0.6-0.3,1-0.7,1.4-1.3s0.6-1.2,0.8-1.9c0.2-0.7,0.3-1.5,0.3-2.2
		c0-0.3,0-0.7-0.1-1c-0.1-0.3-0.1-0.6-0.3-0.8c-0.1-0.2-0.3-0.4-0.5-0.5C163.6,180.1,163.4,180,163.1,180z"/>
	<path fill="#17283E" d="M178.1,182.9c0,0.8-0.1,1.7-0.4,2.5c-0.3,0.8-0.7,1.6-1.2,2.3c-0.5,0.7-1.1,1.2-1.9,1.6
		c-0.8,0.4-1.6,0.6-2.6,0.6c-0.7,0-1.3-0.1-1.8-0.3c-0.5-0.2-1-0.5-1.3-0.9c-0.4-0.4-0.6-0.9-0.8-1.4c-0.2-0.5-0.3-1.1-0.3-1.8
		c0-0.9,0.1-1.8,0.4-2.6c0.3-0.8,0.7-1.6,1.2-2.3c0.5-0.7,1.1-1.2,1.9-1.6c0.7-0.4,1.6-0.6,2.5-0.6c0.7,0,1.3,0.1,1.8,0.4
		c0.5,0.2,1,0.6,1.4,1c0.4,0.4,0.7,0.9,0.8,1.4C178,181.7,178.1,182.3,178.1,182.9z M172.1,188.4c0.6,0,1.2-0.2,1.7-0.5
		c0.5-0.3,0.9-0.7,1.2-1.2c0.3-0.5,0.6-1.1,0.8-1.7c0.2-0.6,0.3-1.3,0.3-1.9c0-0.4,0-0.8-0.1-1.2c-0.1-0.4-0.2-0.7-0.4-1
		c-0.2-0.3-0.5-0.5-0.8-0.7c-0.3-0.2-0.7-0.2-1.1-0.2c-0.6,0-1.1,0.1-1.6,0.4c-0.5,0.3-0.9,0.7-1.2,1.2c-0.3,0.5-0.6,1.1-0.8,1.7
		c-0.2,0.7-0.3,1.3-0.3,2.1c0,0.9,0.2,1.6,0.6,2.1C170.8,188.1,171.3,188.4,172.1,188.4z"/>
	<path fill="#17283E" d="M179.5,178.7h2l0.5-2.9h2l-0.5,2.9h3.6l-0.3,1.6h-3.6l-1.1,6c0,0.3-0.1,0.5-0.1,0.7c0,0.4,0.1,0.8,0.3,1
		c0.2,0.2,0.5,0.3,1,0.3c0.4,0,0.8,0,1.1-0.1c0.4-0.1,0.7-0.2,1.1-0.3l0.1,1.5c-0.3,0.2-0.7,0.3-1.2,0.4c-0.5,0.1-1,0.2-1.5,0.2
		c-1,0-1.7-0.2-2.2-0.7c-0.5-0.5-0.8-1.2-0.8-2.1c0-0.2,0-0.3,0-0.5c0-0.2,0-0.3,0.1-0.4l1-5.9h-2L179.5,178.7z"/>
	<path fill="#17283E" d="M191.5,189.7l2.7-15.3h4.5c0.6,0,1.2,0.1,1.8,0.2c0.5,0.2,1,0.4,1.4,0.7s0.7,0.6,0.9,1
		c0.2,0.4,0.3,0.8,0.3,1.4c0,0.6-0.1,1.1-0.3,1.5c-0.2,0.5-0.5,0.9-0.9,1.2c-0.4,0.3-0.8,0.6-1.3,0.9c-0.5,0.2-0.9,0.4-1.4,0.5
		c0.4,0.1,0.9,0.2,1.3,0.4c0.4,0.2,0.7,0.4,1,0.7c0.3,0.3,0.5,0.6,0.7,1s0.3,0.8,0.3,1.3c0,0.8-0.2,1.5-0.6,2.1
		c-0.4,0.6-0.9,1-1.5,1.4c-0.6,0.4-1.3,0.6-2,0.8c-0.7,0.2-1.5,0.2-2.2,0.2H191.5z M200.2,185.1c0-0.4-0.1-0.8-0.3-1.1
		c-0.2-0.3-0.4-0.6-0.7-0.8c-0.3-0.2-0.7-0.4-1.1-0.5c-0.4-0.1-0.9-0.1-1.4-0.1h-2l-1,5.4h2.4c0.5,0,1-0.1,1.4-0.2
		c0.5-0.1,0.9-0.3,1.3-0.5c0.4-0.2,0.7-0.5,0.9-0.9C200.1,186.1,200.2,185.7,200.2,185.1z M196.6,181c0.6,0,1.1-0.1,1.6-0.2
		c0.5-0.1,1-0.3,1.4-0.6c0.4-0.3,0.7-0.6,0.9-0.9c0.2-0.4,0.3-0.8,0.3-1.3c0-0.7-0.2-1.1-0.7-1.5c-0.5-0.3-1.1-0.5-2-0.5h-2.2
		l-0.9,5H196.6z"/>
	<path fill="#17283E" d="M214.3,178.7l-2,11h-2l0.6-3.5c-0.2,0.4-0.5,0.8-0.7,1.3c-0.3,0.4-0.6,0.8-0.9,1.2
		c-0.3,0.4-0.7,0.7-1.1,0.9c-0.4,0.2-0.9,0.3-1.4,0.3c-1,0-1.7-0.3-2.1-1c-0.4-0.7-0.6-1.6-0.6-2.8c0-0.5,0-1,0.1-1.5l1-5.9h2
		l-1,5.7c0,0.3-0.1,0.5-0.1,0.8c0,0.3,0,0.5,0,0.8c0,0.3,0,0.6,0,0.9c0,0.3,0.1,0.5,0.2,0.8c0.1,0.2,0.2,0.4,0.4,0.5
		c0.2,0.1,0.4,0.2,0.7,0.2c0.4,0,0.8-0.2,1.1-0.5s0.7-0.7,1.1-1.2c0.3-0.5,0.7-1,0.9-1.5s0.5-1.1,0.8-1.6l0.9-4.9H214.3z"/>
	<path fill="#17283E" d="M215.2,189.7l2-11h2l-2,11H215.2z M217.4,175.6c0-0.4,0.1-0.7,0.4-1c0.3-0.3,0.6-0.4,1.1-0.4
		c0.4,0,0.6,0.1,0.8,0.3c0.2,0.2,0.3,0.5,0.3,0.8c0,0.4-0.1,0.7-0.4,1c-0.3,0.3-0.6,0.4-1.1,0.4c-0.4,0-0.6-0.1-0.8-0.3
		C217.5,176.1,217.4,175.9,217.4,175.6z"/>
	<path fill="#17283E" d="M220.1,189.7l2.8-16.2h2l-2.8,16.2H220.1z"/>
	<path fill="#17283E" d="M233.7,189.7h-1.9l0.5-3.1c-0.2,0.4-0.5,0.8-0.8,1.2c-0.3,0.4-0.6,0.7-1,1.1c-0.4,0.3-0.7,0.6-1.2,0.8
		c-0.4,0.2-0.9,0.3-1.3,0.3c-0.5,0-1-0.1-1.3-0.3s-0.7-0.5-0.9-0.9c-0.2-0.4-0.4-0.8-0.5-1.3c-0.1-0.5-0.2-1-0.2-1.5
		c0-0.9,0.1-1.8,0.4-2.6c0.3-0.9,0.7-1.7,1.2-2.4c0.5-0.7,1.2-1.3,2-1.7c0.8-0.5,1.7-0.7,2.8-0.7c0.9,0,1.6,0.1,2.2,0.4l0.9-5.4h2
		L233.7,189.7z M228.6,188.4c0.4,0,0.8-0.1,1.2-0.4c0.4-0.3,0.8-0.6,1.1-1c0.4-0.4,0.7-0.9,1-1.4s0.6-1,0.8-1.5l0.6-3.7
		c-0.2-0.1-0.5-0.2-0.9-0.2c-0.3-0.1-0.7-0.1-1-0.1c-0.7,0-1.4,0.2-1.9,0.5c-0.6,0.3-1,0.8-1.4,1.4c-0.4,0.6-0.7,1.2-0.8,1.9
		c-0.2,0.7-0.3,1.4-0.3,2.1c0,0.3,0,0.6,0.1,0.9c0,0.3,0.1,0.6,0.2,0.8c0.1,0.2,0.3,0.4,0.4,0.6C228,188.3,228.3,188.4,228.6,188.4z
		"/>
	<path fill="#17283E" d="M242.7,178.4c0.9,0,1.6,0.2,2.2,0.7c0.6,0.5,0.8,1.1,0.8,1.9c0,0.8-0.2,1.4-0.7,1.9c-0.5,0.5-1,0.9-1.7,1.2
		s-1.4,0.5-2.3,0.6c-0.8,0.1-1.6,0.2-2.4,0.3c0,0.3-0.1,0.6-0.1,0.8c0,0.7,0.2,1.3,0.5,1.8c0.3,0.5,0.9,0.7,1.8,0.7
		c0.5,0,1.1-0.1,1.6-0.2c0.5-0.2,1-0.4,1.5-0.6l0.4,1.4c-0.5,0.3-1.1,0.6-1.7,0.7c-0.6,0.2-1.3,0.3-2,0.3c-0.7,0-1.3-0.1-1.8-0.3
		c-0.5-0.2-0.9-0.5-1.3-0.9c-0.3-0.4-0.6-0.8-0.7-1.3c-0.2-0.5-0.3-1.1-0.3-1.7c0-0.9,0.1-1.8,0.4-2.7c0.3-0.9,0.7-1.7,1.2-2.3
		c0.5-0.7,1.2-1.2,1.9-1.6C240.9,178.6,241.8,178.4,242.7,178.4z M242.4,179.9c-0.5,0-0.9,0.1-1.3,0.3c-0.4,0.2-0.7,0.5-1,0.8
		c-0.3,0.3-0.5,0.7-0.7,1.1c-0.2,0.4-0.3,0.8-0.4,1.3c0.5,0,1.1-0.1,1.7-0.2c0.6-0.1,1.1-0.2,1.6-0.4c0.5-0.2,0.9-0.4,1.2-0.7
		c0.3-0.3,0.5-0.6,0.5-1.1c0-0.4-0.1-0.6-0.4-0.9S242.8,179.9,242.4,179.9z"/>
	<path fill="#17283E" d="M253.6,180.4c-0.1,0-0.1,0-0.2,0c-0.1,0-0.1,0-0.2,0c-0.8,0-1.5,0.3-2.2,0.8s-1.2,1.3-1.6,2.2l-1.1,6.2h-2
		l2-11h2l-0.5,2.9c0.4-1,0.8-1.7,1.4-2.2c0.6-0.5,1.2-0.7,2-0.7c0.1,0,0.3,0,0.4,0c0.1,0,0.2,0,0.3,0.1L253.6,180.4z"/>
</g>
</svg>
